# xmcd
#
# Track frame offsets:
#	150
#	22710
#	46482
#	67985
#	87772
#	105045
#	127950
#	147360
#	169215
#	188707
#
# Disc length: 2781 seconds
#
# Revision: 1
# Processed by: cddbd v1.4PL0 Copyright (c) Steve Scherf et al.
# Submitted via: EasyCDDAExtractor 5.0.7
#
DISCID=730adb0a
DTITLE=Various Artist - Tinh Yeu va Noi Nho
DYEAR=1900
DGENRE=
TTITLE0=Ngoc Lan - Yeu
TTITLE1=Alan Nguyen - Whenever you come to me
TTITLE2=Thuy Du - Tinh nong
TTITLE3=Alan Nguyen - Mal de toi
TTITLE4=Instrumental - Khuc buon
TTITLE5=Ngoc Lan - Prisoner
TTITLE6=Lynda Trang Dai - Tiec Nho
TTITLE7=Thuy Du - Xa em
TTITLE8=Trizzie Phuong Trinh - Don't go away
TTITLE9=Sheilla and Alan Nguyen - Rhym of love
EXTD=
EXTT0=
EXTT1=
EXTT2=
EXTT3=
EXTT4=
EXTT5=
EXTT6=
EXTT7=
EXTT8=
EXTT9=
PLAYORDER=
